<mxfile host="65bd71144e" modified="2020-10-20T06:08:48.862Z" agent="5.0 (Windows NT 10.0; Win64; x64) AppleWebKit/537.36 (KHTML, like Gecko) Code/1.50.1 Chrome/83.0.4103.122 Electron/9.2.1 Safari/537.36" version="13.6.5" etag="b08kJRCecHrxcoEtEZJe">
    <diagram id="FRt4WeU2MnN2IFQE8qqf" name="ページ1">
        <mxGraphModel dx="1623" dy="1131" grid="1" gridSize="10" guides="1" tooltips="1" connect="1" arrows="1" fold="1" page="1" pageScale="1" pageWidth="827" pageHeight="1169" math="0" shadow="0">
            <root>
                <mxCell id="0"/>
                <mxCell id="1" parent="0"/>
                <mxCell id="59" value="" style="fillColor=#AE4132;strokeColor=none;opacity=30;" vertex="1" parent="1">
                    <mxGeometry x="660" y="20" width="210" height="99.99999999999994" as="geometry"/>
                </mxCell>
                <mxCell id="60" value="" style="fillColor=#10739E;strokeColor=none;opacity=30;" vertex="1" parent="1">
                    <mxGeometry x="80" y="170" width="1400" height="100" as="geometry"/>
                </mxCell>
                <mxCell id="65" value="" style="fillColor=#F2931E;strokeColor=none;opacity=30;" vertex="1" parent="1">
                    <mxGeometry x="80" y="280" width="1400" height="260" as="geometry"/>
                </mxCell>
                <mxCell id="73" value="" style="fillColor=#12AAB5;strokeColor=none;opacity=30;" vertex="1" parent="1">
                    <mxGeometry x="80" y="550" width="1400" height="80" as="geometry"/>
                </mxCell>
                <mxCell id="75" value="SCSS" style="rounded=1;fillColor=#23445D;gradientColor=none;strokeColor=none;fontColor=#FFFFFF;fontStyle=1;fontFamily=Tahoma;fontSize=20;" vertex="1" parent="1">
                    <mxGeometry x="670" y="29.99999999999997" width="190" height="80" as="geometry"/>
                </mxCell>
                <mxCell id="77" value="" style="edgeStyle=elbowEdgeStyle;elbow=vertical;strokeWidth=2;rounded=0" edge="1" parent="1" source="75" target="76">
                    <mxGeometry x="320" y="59.99999999999997" width="100" height="100" as="geometry">
                        <mxPoint x="320" y="159.99999999999997" as="sourcePoint"/>
                        <mxPoint x="420" y="59.99999999999997" as="targetPoint"/>
                        <Array as="points">
                            <mxPoint x="1020" y="150"/>
                        </Array>
                    </mxGeometry>
                </mxCell>
                <mxCell id="122" value="" style="edgeStyle=elbowEdgeStyle;elbow=vertical;strokeWidth=2;rounded=0;entryX=0.5;entryY=0;entryDx=0;entryDy=0;exitX=0.5;exitY=1;exitDx=0;exitDy=0;" edge="1" parent="1" source="75" target="79">
                    <mxGeometry x="330" y="69.99999999999997" width="100" height="100" as="geometry">
                        <mxPoint x="844.9999999999999" y="119.99999999999997" as="sourcePoint"/>
                        <mxPoint x="1449.9999999999998" y="189.99999999999997" as="targetPoint"/>
                        <Array as="points">
                            <mxPoint x="800" y="150"/>
                            <mxPoint x="835" y="180"/>
                        </Array>
                    </mxGeometry>
                </mxCell>
                <mxCell id="123" value="" style="edgeStyle=elbowEdgeStyle;elbow=vertical;strokeWidth=2;rounded=0" edge="1" parent="1" source="75" target="80">
                    <mxGeometry x="-40" y="-20.00000000000003" width="100" height="100" as="geometry">
                        <mxPoint x="-40" y="79.99999999999997" as="sourcePoint"/>
                        <mxPoint x="60" y="-20.00000000000003" as="targetPoint"/>
                        <Array as="points">
                            <mxPoint x="650" y="150"/>
                        </Array>
                    </mxGeometry>
                </mxCell>
                <mxCell id="165" value="" style="edgeStyle=elbowEdgeStyle;elbow=vertical;strokeWidth=2;rounded=0;exitX=0.5;exitY=1;exitDx=0;exitDy=0;entryX=0.5;entryY=0;entryDx=0;entryDy=0;" edge="1" parent="1" source="75" target="78">
                    <mxGeometry x="-30" y="-10.000000000000028" width="100" height="100" as="geometry">
                        <mxPoint x="835" y="270" as="sourcePoint"/>
                        <mxPoint x="1035" y="310" as="targetPoint"/>
                        <Array as="points">
                            <mxPoint x="920" y="150"/>
                        </Array>
                    </mxGeometry>
                </mxCell>
                <mxCell id="166" value="" style="group" vertex="1" connectable="0" parent="1">
                    <mxGeometry x="710" y="179.99999999999997" width="219.9999999999999" height="450" as="geometry"/>
                </mxCell>
                <mxCell id="79" value="mixins" style="rounded=1;fillColor=#23445D;gradientColor=none;strokeColor=none;fontColor=#FFFFFF;fontStyle=1;fontFamily=Tahoma;fontSize=20;" vertex="1" parent="166">
                    <mxGeometry x="29.999999999999886" width="190" height="80" as="geometry"/>
                </mxCell>
                <mxCell id="93" value="_mixin.scss" style="rounded=1;fillColor=#23445D;gradientColor=none;strokeColor=none;fontColor=#FFFFFF;fontStyle=1;fontFamily=Tahoma;fontSize=20;" vertex="1" parent="166">
                    <mxGeometry x="50" y="380" width="160" height="60" as="geometry"/>
                </mxCell>
                <mxCell id="94" value="_mediaquery.scss" style="rounded=1;fillColor=#23445D;gradientColor=none;strokeColor=none;fontColor=#FFFFFF;fontStyle=1;fontFamily=Tahoma;fontSize=20;" vertex="1" parent="166">
                    <mxGeometry x="50" y="120.00000000000003" width="160" height="60" as="geometry"/>
                </mxCell>
                <mxCell id="95" value="etc" style="rounded=1;fillColor=#23445D;gradientColor=none;strokeColor=none;fontColor=#FFFFFF;fontStyle=1;fontFamily=Tahoma;fontSize=20;" vertex="1" parent="166">
                    <mxGeometry x="50" y="210.00000000000003" width="160" height="60" as="geometry"/>
                </mxCell>
                <mxCell id="158" value="" style="edgeStyle=elbowEdgeStyle;elbow=vertical;strokeWidth=2;rounded=0;exitX=0;exitY=0.5;exitDx=0;exitDy=0;entryX=0;entryY=0.5;entryDx=0;entryDy=0;" edge="1" parent="166" source="79" target="93">
                    <mxGeometry x="-550" y="-200" width="100" height="100" as="geometry">
                        <mxPoint x="-550" y="-100" as="sourcePoint"/>
                        <mxPoint x="-450" y="-200" as="targetPoint"/>
                        <Array as="points">
                            <mxPoint y="320"/>
                            <mxPoint x="30" y="420"/>
                            <mxPoint x="5" y="150.00000000000003"/>
                            <mxPoint x="20" y="410"/>
                        </Array>
                    </mxGeometry>
                </mxCell>
                <mxCell id="134" value="" style="edgeStyle=elbowEdgeStyle;elbow=horizontal;strokeWidth=2;rounded=0;exitX=0;exitY=0.5;exitDx=0;exitDy=0;entryX=0;entryY=0.5;entryDx=0;entryDy=0;" edge="1" parent="166" source="79" target="94">
                    <mxGeometry x="-40" y="-20.00000000000003" width="100" height="100" as="geometry">
                        <mxPoint x="-40" y="79.99999999999997" as="sourcePoint"/>
                        <mxPoint x="60" y="-20.00000000000003" as="targetPoint"/>
                        <Array as="points">
                            <mxPoint y="120"/>
                            <mxPoint x="515" y="320"/>
                            <mxPoint x="520" y="340"/>
                            <mxPoint x="540" y="360"/>
                        </Array>
                    </mxGeometry>
                </mxCell>
                <mxCell id="135" value="" style="edgeStyle=elbowEdgeStyle;elbow=horizontal;strokeWidth=2;rounded=0;entryX=0;entryY=0.5;entryDx=0;entryDy=0;exitX=0;exitY=0.5;exitDx=0;exitDy=0;" edge="1" parent="166" source="79" target="95">
                    <mxGeometry x="-40" y="-20.00000000000003" width="100" height="100" as="geometry">
                        <mxPoint x="-40" y="79.99999999999997" as="sourcePoint"/>
                        <mxPoint x="60" y="-20.00000000000003" as="targetPoint"/>
                        <Array as="points">
                            <mxPoint y="140"/>
                        </Array>
                    </mxGeometry>
                </mxCell>
                <mxCell id="168" value="" style="group" vertex="1" connectable="0" parent="1">
                    <mxGeometry x="970" y="179.99999999999997" width="230" height="450" as="geometry"/>
                </mxCell>
                <mxCell id="78" value="components" style="rounded=1;fillColor=#23445D;gradientColor=none;strokeColor=none;fontColor=#FFFFFF;fontStyle=1;fontFamily=Tahoma;fontSize=20;" vertex="1" parent="168">
                    <mxGeometry x="40" width="190" height="80" as="geometry"/>
                </mxCell>
                <mxCell id="104" value="_components.scss" style="rounded=1;fillColor=#23445D;gradientColor=none;strokeColor=none;fontColor=#FFFFFF;fontStyle=1;fontFamily=Tahoma;fontSize=20;" vertex="1" parent="168">
                    <mxGeometry x="55" y="380" width="160" height="60" as="geometry"/>
                </mxCell>
                <mxCell id="105" value="_button.scss" style="rounded=1;fillColor=#23445D;gradientColor=none;strokeColor=none;fontColor=#FFFFFF;fontStyle=1;fontFamily=Tahoma;fontSize=20;" vertex="1" parent="168">
                    <mxGeometry x="50" y="120.00000000000003" width="170" height="60" as="geometry"/>
                </mxCell>
                <mxCell id="106" value="_form.scss" style="rounded=1;fillColor=#23445D;gradientColor=none;strokeColor=none;fontColor=#FFFFFF;fontStyle=1;fontFamily=Tahoma;fontSize=20;" vertex="1" parent="168">
                    <mxGeometry x="50" y="210.00000000000003" width="170" height="60" as="geometry"/>
                </mxCell>
                <mxCell id="143" value="" style="edgeStyle=elbowEdgeStyle;elbow=horizontal;strokeWidth=2;rounded=0;exitX=0;exitY=0.5;exitDx=0;exitDy=0;entryX=0;entryY=0.5;entryDx=0;entryDy=0;" edge="1" parent="168" source="78" target="105">
                    <mxGeometry x="-840" y="-200" width="100" height="100" as="geometry">
                        <mxPoint x="-840" y="-100" as="sourcePoint"/>
                        <mxPoint x="-740" y="-200" as="targetPoint"/>
                        <Array as="points">
                            <mxPoint y="120.00000000000003"/>
                            <mxPoint x="25" y="170.00000000000003"/>
                            <mxPoint x="140" y="200.00000000000003"/>
                        </Array>
                    </mxGeometry>
                </mxCell>
                <mxCell id="144" value="" style="edgeStyle=elbowEdgeStyle;elbow=horizontal;strokeWidth=2;rounded=0;exitX=0;exitY=0.5;exitDx=0;exitDy=0;entryX=0;entryY=0.5;entryDx=0;entryDy=0;" edge="1" parent="168" source="78" target="106">
                    <mxGeometry x="-840" y="-200" width="100" height="100" as="geometry">
                        <mxPoint x="-840" y="-100" as="sourcePoint"/>
                        <mxPoint x="-740" y="-200" as="targetPoint"/>
                        <Array as="points">
                            <mxPoint y="120.00000000000003"/>
                            <mxPoint x="25" y="170.00000000000003"/>
                            <mxPoint x="140" y="250.00000000000003"/>
                        </Array>
                    </mxGeometry>
                </mxCell>
                <mxCell id="160" value="" style="edgeStyle=elbowEdgeStyle;elbow=vertical;strokeWidth=2;rounded=0;entryX=0;entryY=0.5;entryDx=0;entryDy=0;exitX=0;exitY=0.5;exitDx=0;exitDy=0;" edge="1" parent="168" source="78" target="104">
                    <mxGeometry x="-840" y="-200" width="100" height="100" as="geometry">
                        <mxPoint x="-840" y="-100" as="sourcePoint"/>
                        <mxPoint x="-740" y="-200" as="targetPoint"/>
                        <Array as="points">
                            <mxPoint y="290"/>
                            <mxPoint x="40" y="420"/>
                        </Array>
                    </mxGeometry>
                </mxCell>
                <mxCell id="169" value="" style="group" vertex="1" connectable="0" parent="1">
                    <mxGeometry x="1230" y="179.99999999999997" width="224.99999999999977" height="450" as="geometry"/>
                </mxCell>
                <mxCell id="76" value="extensions" style="rounded=1;fillColor=#23445D;gradientColor=none;strokeColor=none;fontColor=#FFFFFF;fontStyle=1;fontFamily=Tahoma;fontSize=20;" vertex="1" parent="169">
                    <mxGeometry x="34.99999999999977" width="190" height="80" as="geometry"/>
                </mxCell>
                <mxCell id="111" value="_extenxions.scss" style="rounded=1;fillColor=#23445D;gradientColor=none;strokeColor=none;fontColor=#FFFFFF;fontStyle=1;fontFamily=Tahoma;fontSize=14" vertex="1" parent="169">
                    <mxGeometry x="45" y="380" width="170" height="60" as="geometry"/>
                </mxCell>
                <mxCell id="112" value="Programming" style="rounded=1;fillColor=#23445D;gradientColor=none;strokeColor=none;fontColor=#FFFFFF;fontStyle=1;fontFamily=Tahoma;fontSize=14" vertex="1" parent="169">
                    <mxGeometry x="45" y="210.00000000000003" width="170" height="60" as="geometry"/>
                </mxCell>
                <mxCell id="113" value="font-awesome" style="rounded=1;fillColor=#23445D;gradientColor=none;strokeColor=none;fontColor=#FFFFFF;fontStyle=1;fontFamily=Tahoma;fontSize=14" vertex="1" parent="169">
                    <mxGeometry x="45" y="120.00000000000003" width="170" height="60" as="geometry"/>
                </mxCell>
                <mxCell id="148" value="" style="edgeStyle=elbowEdgeStyle;elbow=horizontal;strokeWidth=2;rounded=0;exitX=0;exitY=0.5;exitDx=0;exitDy=0;entryX=0;entryY=0.5;entryDx=0;entryDy=0;" edge="1" parent="169" source="76" target="112">
                    <mxGeometry x="-1225" y="-200" width="100" height="100" as="geometry">
                        <mxPoint x="-1225" y="-100" as="sourcePoint"/>
                        <mxPoint x="-1125" y="-200" as="targetPoint"/>
                        <Array as="points">
                            <mxPoint y="150.00000000000003"/>
                            <mxPoint x="165" y="200.00000000000003"/>
                        </Array>
                    </mxGeometry>
                </mxCell>
                <mxCell id="149" value="" style="edgeStyle=elbowEdgeStyle;elbow=horizontal;strokeWidth=2;rounded=0;exitX=0;exitY=0.5;exitDx=0;exitDy=0;entryX=0;entryY=0.5;entryDx=0;entryDy=0;" edge="1" parent="169" source="76" target="113">
                    <mxGeometry x="-1225" y="-200" width="100" height="100" as="geometry">
                        <mxPoint x="-1225" y="-100" as="sourcePoint"/>
                        <mxPoint x="-1125" y="-200" as="targetPoint"/>
                        <Array as="points">
                            <mxPoint y="170.00000000000003"/>
                            <mxPoint y="220.00000000000003"/>
                            <mxPoint x="165" y="260"/>
                        </Array>
                    </mxGeometry>
                </mxCell>
                <mxCell id="161" value="" style="edgeStyle=elbowEdgeStyle;elbow=vertical;strokeWidth=2;rounded=0;entryX=0;entryY=0.5;entryDx=0;entryDy=0;" edge="1" parent="169" source="76" target="111">
                    <mxGeometry x="-1225" y="-200" width="100" height="100" as="geometry">
                        <mxPoint x="-1225" y="-100" as="sourcePoint"/>
                        <mxPoint x="-1125" y="-200" as="targetPoint"/>
                        <Array as="points">
                            <mxPoint y="420"/>
                        </Array>
                    </mxGeometry>
                </mxCell>
                <mxCell id="172" value="" style="group" vertex="1" connectable="0" parent="1">
                    <mxGeometry x="410" y="179.99999999999997" width="235" height="450" as="geometry"/>
                </mxCell>
                <mxCell id="80" value="variables" style="rounded=1;fillColor=#23445D;gradientColor=none;strokeColor=none;fontColor=#FFFFFF;fontStyle=1;fontFamily=Tahoma;fontSize=20;" vertex="1" parent="172">
                    <mxGeometry x="45" width="190" height="80" as="geometry"/>
                </mxCell>
                <mxCell id="83" value="_color.scss" style="rounded=1;fillColor=#23445D;gradientColor=none;strokeColor=none;fontColor=#FFFFFF;fontStyle=1;fontFamily=Tahoma;fontSize=20;" vertex="1" parent="172">
                    <mxGeometry x="59" y="120.00000000000003" width="170" height="60" as="geometry"/>
                </mxCell>
                <mxCell id="84" value="_position.scss" style="rounded=1;fillColor=#23445D;gradientColor=none;strokeColor=none;fontColor=#FFFFFF;fontStyle=1;fontFamily=Tahoma;fontSize=20;" vertex="1" parent="172">
                    <mxGeometry x="55" y="210.00000000000003" width="170" height="60" as="geometry"/>
                </mxCell>
                <mxCell id="85" value="etc" style="rounded=1;fillColor=#23445D;gradientColor=none;strokeColor=none;fontColor=#FFFFFF;fontStyle=1;fontFamily=Tahoma;fontSize=20;" vertex="1" parent="172">
                    <mxGeometry x="55" y="300" width="170" height="60" as="geometry"/>
                </mxCell>
                <mxCell id="88" value="_variables.scss" style="rounded=1;fillColor=#23445D;gradientColor=none;strokeColor=none;fontColor=#FFFFFF;fontStyle=1;fontFamily=Tahoma;fontSize=20;" vertex="1" parent="172">
                    <mxGeometry x="55" y="380" width="170" height="60" as="geometry"/>
                </mxCell>
                <mxCell id="125" value="" style="edgeStyle=elbowEdgeStyle;elbow=horizontal;strokeWidth=2;rounded=0" edge="1" parent="172" source="80" target="83">
                    <mxGeometry x="-225" y="-200" width="100" height="100" as="geometry">
                        <mxPoint x="-225" y="-100" as="sourcePoint"/>
                        <mxPoint x="-125" y="-200" as="targetPoint"/>
                        <Array as="points">
                            <mxPoint y="100.00000000000003"/>
                        </Array>
                    </mxGeometry>
                </mxCell>
                <mxCell id="126" value="" style="edgeStyle=elbowEdgeStyle;elbow=horizontal;strokeWidth=2;rounded=0" edge="1" parent="172" source="80" target="84">
                    <mxGeometry x="-225" y="-200" width="100" height="100" as="geometry">
                        <mxPoint x="-225" y="-100" as="sourcePoint"/>
                        <mxPoint x="-125" y="-200" as="targetPoint"/>
                        <Array as="points">
                            <mxPoint y="140.00000000000003"/>
                        </Array>
                    </mxGeometry>
                </mxCell>
                <mxCell id="127" value="" style="edgeStyle=elbowEdgeStyle;elbow=horizontal;strokeWidth=2;rounded=0" edge="1" parent="172" source="80" target="85">
                    <mxGeometry x="-225" y="-200" width="100" height="100" as="geometry">
                        <mxPoint x="-225" y="-100" as="sourcePoint"/>
                        <mxPoint x="-125" y="-200" as="targetPoint"/>
                        <Array as="points">
                            <mxPoint y="190.00000000000003"/>
                        </Array>
                    </mxGeometry>
                </mxCell>
                <mxCell id="130" value="" style="edgeStyle=elbowEdgeStyle;elbow=horizontal;strokeWidth=2;rounded=0" edge="1" parent="172" source="80" target="88">
                    <mxGeometry x="-225" y="-200" width="100" height="100" as="geometry">
                        <mxPoint x="-225" y="-100" as="sourcePoint"/>
                        <mxPoint x="-125" y="-200" as="targetPoint"/>
                        <Array as="points">
                            <mxPoint y="330"/>
                        </Array>
                    </mxGeometry>
                </mxCell>
                <mxCell id="175" value="main.scss" style="rounded=1;fillColor=#23445D;gradientColor=none;strokeColor=none;fontColor=#FFFFFF;fontStyle=1;fontFamily=Tahoma;fontSize=20;" vertex="1" parent="1">
                    <mxGeometry x="170" y="560" width="150" height="60" as="geometry"/>
                </mxCell>
                <mxCell id="185" value="" style="edgeStyle=elbowEdgeStyle;elbow=vertical;strokeWidth=2;rounded=0;entryX=0.5;entryY=0;entryDx=0;entryDy=0;exitX=0.5;exitY=1;exitDx=0;exitDy=0;" edge="1" parent="1" source="75" target="175">
                    <mxGeometry x="-30" y="-10.000000000000028" width="100" height="100" as="geometry">
                        <mxPoint x="760" y="110" as="sourcePoint"/>
                        <mxPoint x="560" y="190" as="targetPoint"/>
                        <Array as="points">
                            <mxPoint x="500" y="150"/>
                            <mxPoint x="750" y="140"/>
                            <mxPoint x="750" y="150"/>
                            <mxPoint x="750" y="140"/>
                            <mxPoint x="370" y="140"/>
                        </Array>
                    </mxGeometry>
                </mxCell>
                <mxCell id="186" value="" style="fillColor=#F2931E;strokeColor=none;opacity=30;" vertex="1" parent="1">
                    <mxGeometry x="80" y="650" width="320" height="260" as="geometry"/>
                </mxCell>
                <mxCell id="188" value="main.css" style="rounded=1;fillColor=#23445D;gradientColor=none;strokeColor=none;fontColor=#FFFFFF;fontStyle=1;fontFamily=Tahoma;fontSize=20;" vertex="1" parent="1">
                    <mxGeometry x="160" y="830" width="150" height="60" as="geometry"/>
                </mxCell>
                <mxCell id="189" value="" style="edgeStyle=elbowEdgeStyle;elbow=vertical;strokeWidth=2;rounded=0;entryX=0.5;entryY=0;entryDx=0;entryDy=0;exitX=0.437;exitY=1.007;exitDx=0;exitDy=0;exitPerimeter=0;" edge="1" parent="1" source="175" target="188">
                    <mxGeometry x="-20" y="-2.842170943040401e-14" width="100" height="100" as="geometry">
                        <mxPoint x="775" y="120" as="sourcePoint"/>
                        <mxPoint x="255" y="569.9999999999998" as="targetPoint"/>
                        <Array as="points">
                            <mxPoint x="270" y="750"/>
                            <mxPoint x="440" y="770"/>
                            <mxPoint x="760" y="150"/>
                            <mxPoint x="760" y="160"/>
                            <mxPoint x="760" y="150"/>
                            <mxPoint x="380" y="150"/>
                        </Array>
                    </mxGeometry>
                </mxCell>
                <mxCell id="187" value="CSS" style="rounded=1;fillColor=#23445D;gradientColor=none;strokeColor=none;fontColor=#FFFFFF;fontStyle=1;fontFamily=Tahoma;fontSize=20;" vertex="1" parent="1">
                    <mxGeometry x="140" y="690" width="190" height="80" as="geometry"/>
                </mxCell>
            </root>
        </mxGraphModel>
    </diagram>
</mxfile>